<svg width="490" height="490" viewBox="0 0 490 490" fill="none" xmlns="http://www.w3.org/2000/svg">
<path fill-rule="evenodd" clip-rule="evenodd" d="M328.435 80.159C333.38 70.3884 329.468 58.4229 319.243 54.5195C295.29 45.3749 269.766 40.7148 243.976 40.8414C218.282 40.9675 192.899 45.8423 169.115 55.154C158.801 59.1921 154.908 71.3309 159.972 81.0946C164.984 90.7549 176.879 94.4193 187.168 90.6439C205.369 83.9646 224.661 80.4721 244.174 80.3763C263.7 80.2804 283.038 83.5876 301.315 90.0958C311.607 93.7606 323.499 89.9109 328.435 80.159ZM328.244 409.944C333.178 419.72 329.252 431.681 319.024 435.573C295.06 444.69 269.53 449.321 243.741 449.166C218.047 449.01 192.669 444.107 168.896 434.768C158.586 430.718 154.708 418.575 159.784 408.817C164.806 399.162 176.706 395.511 186.989 399.299C205.183 405.999 224.471 409.513 243.985 409.631C263.51 409.749 282.852 406.464 301.137 399.976C311.433 396.323 323.32 400.186 328.244 409.944ZM448.759 213.113C450.497 223.989 442.024 233.439 431.026 234.084C420 234.731 410.64 226.273 408.636 215.414C405.17 196.637 398.421 178.547 388.643 161.976C378.857 145.391 366.241 130.674 351.404 118.454C342.867 111.422 340.081 99.115 346.101 89.8775C352.039 80.7672 364.299 78.0826 372.891 84.8018C393.059 100.573 410.118 119.973 423.139 142.039C436.096 163.999 444.764 188.109 448.759 213.113ZM346.896 399.371C352.931 408.514 365.369 411.167 373.961 404.357C393.978 388.491 410.878 369.032 423.741 346.941C436.589 324.877 445.123 300.68 448.965 275.616C450.622 264.803 442.044 255.433 431.011 254.849C420.014 254.267 410.759 262.645 408.86 273.381C405.519 292.274 398.858 310.495 389.13 327.201C379.401 343.91 366.807 358.751 351.962 371.086C343.536 378.087 340.865 390.233 346.896 399.371ZM41.2365 213.113C39.499 223.989 47.972 233.439 58.9698 234.084C69.9953 234.731 79.3556 226.273 81.36 215.414C84.8259 196.637 91.5747 178.547 101.352 161.976C111.139 145.391 123.754 130.674 138.592 118.454C147.129 111.422 149.915 99.115 143.894 89.8775C137.956 80.7672 125.697 78.0826 117.104 84.8018C96.9367 100.573 79.8774 119.973 66.857 142.039C53.8994 163.999 45.2311 188.109 41.2365 213.113ZM143.109 399.371C137.075 408.514 124.636 411.167 116.044 404.357C96.027 388.491 79.1275 369.032 66.2644 346.941C53.4162 324.877 44.882 300.68 41.0406 275.616C39.3834 264.803 47.961 255.433 58.9947 254.849C69.9914 254.267 79.2468 262.645 81.1454 273.381C84.4867 292.274 91.1475 310.495 100.875 327.201C110.605 343.91 123.198 358.751 138.044 371.086C146.47 378.087 149.14 390.233 143.109 399.371ZM389.403 245.001C389.403 323.933 324.751 387.919 244.999 387.919C165.246 387.919 100.594 323.933 100.594 245.001C100.594 166.07 165.246 102.084 244.999 102.084C324.751 102.084 389.403 166.07 389.403 245.001ZM182.586 196.001C175.944 196.001 172.08 203.509 175.941 208.915L232.746 288.441V196.001H182.586ZM257.246 196.001V288.441L314.051 208.915C317.912 203.509 314.048 196.001 307.405 196.001H257.246ZM156.004 223.155C140.56 201.534 156.016 171.501 182.586 171.501H244.996H307.405C333.976 171.501 349.431 201.534 333.987 223.155L254.964 333.788C252.665 337.007 248.952 338.918 244.996 338.918C241.04 338.918 237.327 337.007 235.027 333.788L156.004 223.155Z" fill="#E3B443"/>
</svg>
